<svg width="189" height="212" viewBox="0 0 189 212" fill="none" xmlns="http://www.w3.org/2000/svg">
<path d="M120.313 144.104C127.172 144.104 132.063 142.932 134.979 140.583C137.906 138.224 139.719 135.104 140.417 131.229C141.109 127.354 141.458 123.198 141.458 118.75V40H170.063V121.021C170.063 133.354 168.052 143.208 164.042 150.583C160.042 157.958 154.354 163.302 146.979 166.604C139.615 169.906 130.729 171.563 120.313 171.563C117.005 171.563 113.823 171.365 110.771 170.979C107.714 170.604 104.792 170.094 102 169.458V134.563H102.563C105.865 140.927 111.781 144.104 120.313 144.104Z" fill="#00F0FF"/>
<mask id="mask0_36_65" style="mask-type:luminance" maskUnits="userSpaceOnUse" x="142" y="6" width="27" height="27">
<path d="M155.484 6C148.036 6 142 12.0365 142 19.4844C142 26.9323 148.036 32.9688 155.484 32.9688C162.932 32.9688 168.969 26.9323 168.969 19.4844C168.969 12.0365 162.932 6 155.484 6Z" fill="white"/>
</mask>
<g mask="url(#mask0_36_65)">
<path d="M142 6H168.969V32.9688H142V6Z" fill="#00EAFA"/>
</g>
<path d="M94.0208 147.083L77.625 100.938L61.2292 147.083H94.0208ZM142.438 196.646H111.75L102.417 170.521H53.0208L43.6875 196.646H13L65.6042 67H89.8333L142.438 196.646Z" fill="#FF1CF7"/>
</svg>
