<svg width="55" height="25" viewBox="0 0 55 25" fill="none" xmlns="http://www.w3.org/2000/svg">
<path d="M46.5 24.5V24.9816C46.709 24.9816 46.8941 24.8469 46.9584 24.648L46.5 24.5ZM54.5443 1.14796C54.626 0.894818 54.487 0.623363 54.2339 0.541648C53.9808 0.459932 53.7093 0.5989 53.6276 0.852041L54.5443 1.14796ZM0 24.9816H2.325V24.0184H0V24.9816ZM6.975 24.9816H11.625V24.0184H6.975V24.9816ZM16.275 24.9816H20.925V24.0184H16.275V24.9816ZM25.575 24.9816H30.225V24.0184H25.575V24.9816ZM34.875 24.9816H39.525V24.0184H34.875V24.9816ZM44.175 24.9816H46.5V24.0184H44.175V24.9816ZM46.9584 24.648L47.5905 22.6896L46.6738 22.3937L46.0416 24.352L46.9584 24.648ZM48.8548 18.773L50.1192 14.8563L49.2025 14.5604L47.9381 18.477L48.8548 18.773ZM51.3835 10.9396L52.6478 7.02296L51.7311 6.72704L50.4668 10.6437L51.3835 10.9396ZM53.9121 3.10629L54.5443 1.14796L53.6276 0.852041L52.9954 2.81037L53.9121 3.10629Z" fill="white"/>
</svg>
