<svg width="269" height="188" viewBox="0 0 269 188" fill="none" xmlns="http://www.w3.org/2000/svg">
<g clip-path="url(#clip0_154_784)">
<path d="M49.0636 1.62271C37.7139 15.4709 29.8662 31.8488 26.184 49.371C22.5019 66.8933 23.0937 85.0447 27.9094 102.29C32.7252 119.535 41.6231 135.367 53.8508 148.446C66.0785 161.526 81.2762 171.468 98.1586 177.433C115.041 183.397 133.111 185.208 150.842 182.713C168.572 180.217 185.44 173.488 200.02 163.095C214.6 152.702 226.463 138.951 234.605 123.005C242.747 107.058 246.93 89.3852 246.798 71.4806L233.195 71.5807C233.311 87.3009 229.639 102.818 222.49 116.819C215.342 130.82 204.926 142.894 192.125 152.019C179.323 161.144 164.513 167.051 148.946 169.243C133.378 171.434 117.513 169.844 102.69 164.607C87.867 159.37 74.5234 150.641 63.7875 139.157C53.0515 127.673 45.2391 113.773 41.0109 98.6313C36.7827 83.49 36.263 67.553 39.496 52.1684C42.7289 36.7838 49.6193 22.404 59.5843 10.2452L49.0636 1.62271Z" fill="url(#paint0_linear_154_784)"/>
<path d="M74.3416 20.9598C66.2492 30.8337 60.6537 42.5111 58.0283 55.0046C55.4029 67.4981 55.8249 80.4401 59.2585 92.736C62.6921 105.032 69.0364 116.32 77.7548 125.646C86.4732 134.972 97.3092 142.06 109.346 146.313C121.384 150.566 134.268 151.857 146.91 150.078C159.551 148.298 171.579 143.501 181.974 136.091C192.37 128.68 200.828 118.876 206.634 107.506C212.439 96.1357 215.421 83.5348 215.327 70.7688L200.135 70.8806C200.211 81.2071 197.799 91.4001 193.103 100.597C188.407 109.795 181.565 117.726 173.156 123.72C164.747 129.714 155.018 133.595 144.792 135.034C134.566 136.473 124.144 135.429 114.407 131.989C104.67 128.549 95.9047 122.815 88.8523 115.271C81.8 107.727 76.668 98.5962 73.8905 88.65C71.113 78.7037 70.7717 68.2348 72.8954 58.1288C75.0191 48.0227 79.5453 38.5767 86.0913 30.5897L74.3416 20.9598Z" fill="url(#paint1_linear_154_784)"/>
<path d="M98.3716 33.6069C93.0275 40.1273 89.3324 47.8389 87.5987 56.0893C85.8649 64.3397 86.1436 72.8863 88.4111 81.0062C90.6786 89.1262 94.8682 96.5806 100.626 102.739C106.383 108.898 113.539 113.579 121.488 116.387C129.437 119.196 137.946 120.048 146.294 118.873C154.642 117.698 162.585 114.53 169.45 109.637C176.315 104.743 181.9 98.2683 185.734 90.7598C189.568 83.2513 191.537 74.93 191.475 66.4996L179.436 66.5882C179.484 73.0853 177.967 79.4984 175.012 85.2851C172.057 91.0718 167.753 96.0618 162.462 99.8331C157.171 103.604 151.05 106.046 144.616 106.952C138.182 107.857 131.625 107.2 125.498 105.036C119.372 102.871 113.857 99.2636 109.42 94.5174C104.983 89.7711 101.754 84.0261 100.007 77.7682C98.259 71.5103 98.0443 64.9235 99.3804 58.5651C100.717 52.2066 103.564 46.2635 107.683 41.2383L98.3716 33.6069Z" fill="url(#paint2_linear_154_784)"/>
</g>
<defs>
<linearGradient id="paint0_linear_154_784" x1="51.1507" y1="145.451" x2="219.451" y2="-0.849721" gradientUnits="userSpaceOnUse">
<stop stop-color="#FF1CF7"/>
<stop offset="1" stop-color="#00F0FF"/>
</linearGradient>
<linearGradient id="paint1_linear_154_784" x1="75.8296" y1="123.51" x2="195.828" y2="19.197" gradientUnits="userSpaceOnUse">
<stop stop-color="#FF1CF7"/>
<stop offset="1" stop-color="#00F0FF"/>
</linearGradient>
<linearGradient id="paint2_linear_154_784" x1="99.3543" y1="101.329" x2="178.599" y2="32.4427" gradientUnits="userSpaceOnUse">
<stop stop-color="#FF1CF7"/>
<stop offset="1" stop-color="#00F0FF"/>
</linearGradient>
<clipPath id="clip0_154_784">
<rect width="269" height="188" fill="white"/>
</clipPath>
</defs>
</svg>
