<svg width="118" height="27" viewBox="0 0 118 27" fill="none" xmlns="http://www.w3.org/2000/svg">
<path d="M19.8595 1V0.518358C19.7062 0.518358 19.562 0.591363 19.4713 0.714959L19.8595 1ZM117.236 1.48164C117.502 1.48164 117.718 1.266 117.718 1C117.718 0.733997 117.502 0.518358 117.236 0.518358V1.48164ZM1.38824 26.9726L2.56696 25.3671L1.79048 24.797L0.61176 26.4025L1.38824 26.9726ZM4.9244 22.1562L7.28184 18.9452L6.50536 18.3752L4.14792 21.5861L4.9244 22.1562ZM9.63928 15.7343L11.9967 12.5233L11.2202 11.9533L8.8628 15.1642L9.63928 15.7343ZM14.3542 9.3124L16.7116 6.10146L15.9351 5.53137L13.5777 8.74232L14.3542 9.3124ZM19.069 2.89051L20.2478 1.28504L19.4713 0.714959L18.2926 2.32043L19.069 2.89051ZM19.8595 1.48164H22.0726V0.518358H19.8595V1.48164ZM26.4988 1.48164H30.925V0.518358H26.4988V1.48164ZM35.3513 1.48164H39.7775V0.518358H35.3513V1.48164ZM44.2037 1.48164H48.6299V0.518358H44.2037V1.48164ZM53.0561 1.48164H57.4823V0.518358H53.0561V1.48164ZM61.9085 1.48164H66.3347V0.518358H61.9085V1.48164ZM70.761 1.48164H75.1872V0.518358H70.761V1.48164ZM79.6134 1.48164H84.0396V0.518358H79.6134V1.48164ZM88.4658 1.48164H92.892V0.518358H88.4658V1.48164ZM97.3183 1.48164H101.744V0.518358H97.3183V1.48164ZM106.171 1.48164H110.597V0.518358H106.171V1.48164ZM115.023 1.48164H117.236V0.518358H115.023V1.48164Z" fill="white"/>
</svg>
