<svg width="20" height="20" viewBox="0 0 20 20" fill="none" xmlns="http://www.w3.org/2000/svg">
<path d="M18.3334 19.9997L13.9584 15.833L14.4834 17.4997H3.75008C3.19755 17.4997 2.66764 17.2802 2.27694 16.8895C1.88624 16.4988 1.66675 15.9689 1.66675 15.4163V2.91634C1.66675 2.36381 1.88624 1.8339 2.27694 1.4432C2.66764 1.0525 3.19755 0.833008 3.75008 0.833008H16.2501C16.8026 0.833008 17.3325 1.0525 17.7232 1.4432C18.1139 1.8339 18.3334 2.36381 18.3334 2.91634V19.9997ZM10.0001 5.66634C7.76675 5.66634 6.20008 6.62467 6.20008 6.62467C7.05841 5.85801 8.55841 5.41634 8.55841 5.41634L8.41675 5.27467C7.00841 5.29967 5.73341 6.27467 5.73341 6.27467C4.30008 9.26634 4.39175 11.8497 4.39175 11.8497C5.55841 13.358 7.29175 13.2497 7.29175 13.2497L7.88341 12.4997C6.84175 12.2747 6.18341 11.3497 6.18341 11.3497C6.18341 11.3497 7.75008 12.4163 10.0001 12.4163C12.2501 12.4163 13.8167 11.3497 13.8167 11.3497C13.8167 11.3497 13.1584 12.2747 12.1167 12.4997L12.7084 13.2497C12.7084 13.2497 14.4417 13.358 15.6084 11.8497C15.6084 11.8497 15.7001 9.26634 14.2667 6.27467C14.2667 6.27467 12.9917 5.29967 11.5834 5.27467L11.4417 5.41634C11.4417 5.41634 12.9417 5.85801 13.8001 6.62467C13.8001 6.62467 12.2334 5.66634 10.0001 5.66634ZM8.27508 8.82467C8.81675 8.82467 9.25841 9.29967 9.25008 9.88301C9.25008 10.458 8.81675 10.9413 8.27508 10.9413C7.74175 10.9413 7.30841 10.458 7.30841 9.88301C7.30841 9.29967 7.73341 8.82467 8.27508 8.82467ZM11.7501 8.82467C12.2917 8.82467 12.7251 9.29967 12.7251 9.88301C12.7251 10.458 12.2917 10.9413 11.7501 10.9413C11.2167 10.9413 10.7834 10.458 10.7834 9.88301C10.7834 9.29967 11.2084 8.82467 11.7501 8.82467Z" fill="white"/>
</svg>
