<svg width="19" height="111" viewBox="0 0 19 111" fill="none" xmlns="http://www.w3.org/2000/svg">
<path d="M7.62781 10.4201H11.4428V0.435347L7.62781 0.435347V10.4201ZM7.62781 26.0161L11.4428 26.0161L11.4428 16.0313L7.62781 16.0313L7.62781 26.0161ZM7.62781 41.612H11.4428V31.6273H7.62781V41.612ZM7.62781 57.208H11.4428L11.4428 47.2232H7.62781L7.62781 57.208ZM7.62781 72.804H11.4428V62.8192H7.62781V72.804ZM7.62781 88.3999H11.4428V78.4152H7.62781V88.3999ZM9.76349 106.46L5.40086 94.4492H0.800926L7.53654 110.293H10.7492L9.76349 106.46ZM13.5055 94.4492L9.01509 106.478L8.15717 110.293H11.3516L18.0872 94.4492H13.5055Z" fill="#FA00FF"/>
</svg>
