<svg width="20" height="20" viewBox="0 0 20 20" fill="none" xmlns="http://www.w3.org/2000/svg">
<path d="M10.0001 1.66699C8.90573 1.66699 7.8221 1.88254 6.81105 2.30133C5.80001 2.72012 4.88135 3.33395 4.10752 4.10777C2.54472 5.67057 1.66675 7.79019 1.66675 10.0003C1.66675 13.6837 4.05841 16.8087 7.36675 17.917C7.78341 17.9837 7.91675 17.7253 7.91675 17.5003V16.092C5.60841 16.592 5.11675 14.9753 5.11675 14.9753C4.73341 14.0087 4.19175 13.7503 4.19175 13.7503C3.43341 13.2337 4.25008 13.2503 4.25008 13.2503C5.08341 13.3087 5.52508 14.1087 5.52508 14.1087C6.25008 15.3753 7.47508 15.0003 7.95008 14.8003C8.02508 14.2587 8.24175 13.892 8.47508 13.6837C6.62508 13.4753 4.68341 12.7587 4.68341 9.58366C4.68341 8.65866 5.00008 7.91699 5.54175 7.32533C5.45841 7.11699 5.16675 6.25033 5.62508 5.12533C5.62508 5.12533 6.32508 4.90033 7.91675 5.97533C8.57508 5.79199 9.29175 5.70033 10.0001 5.70033C10.7084 5.70033 11.4251 5.79199 12.0834 5.97533C13.6751 4.90033 14.3751 5.12533 14.3751 5.12533C14.8334 6.25033 14.5417 7.11699 14.4584 7.32533C15.0001 7.91699 15.3167 8.65866 15.3167 9.58366C15.3167 12.767 13.3667 13.467 11.5084 13.6753C11.8084 13.9337 12.0834 14.442 12.0834 15.217V17.5003C12.0834 17.7253 12.2167 17.992 12.6417 17.917C15.9501 16.8003 18.3334 13.6837 18.3334 10.0003C18.3334 8.90598 18.1179 7.82234 17.6991 6.8113C17.2803 5.80025 16.6665 4.88159 15.8926 4.10777C15.1188 3.33395 14.2002 2.72012 13.1891 2.30133C12.1781 1.88254 11.0944 1.66699 10.0001 1.66699Z" fill="white"/>
</svg>
