<svg width="238" height="406" viewBox="0 0 238 406" fill="none" xmlns="http://www.w3.org/2000/svg">
<g clip-path="url(#clip0_110_3053)">
<g filter="url(#filter0_i_110_3053)">
<path d="M187.207 160.746C225.183 228.494 240.286 300.708 233.937 362.733C227.59 424.752 199.764 476.725 151.746 503.641C103.728 530.558 44.8719 527.174 -11.3464 500.226C-67.5695 473.275 -121.291 422.709 -159.266 354.961C-197.242 287.213 -212.345 214.999 -205.997 152.974C-199.649 90.9549 -171.823 38.9822 -123.805 12.0658C-75.7871 -14.8506 -16.9313 -11.467 39.287 15.4813C95.51 42.432 149.231 92.9983 187.207 160.746Z" stroke="url(#paint0_linear_110_3053)" stroke-width="3"/>
</g>
</g>
<defs>
<filter id="filter0_i_110_3053" x="-208.901" y="-8.00586" width="445.743" height="535.719" filterUnits="userSpaceOnUse" color-interpolation-filters="sRGB">
<feFlood flood-opacity="0" result="BackgroundImageFix"/>
<feBlend mode="normal" in="SourceGraphic" in2="BackgroundImageFix" result="shape"/>
<feColorMatrix in="SourceAlpha" type="matrix" values="0 0 0 0 0 0 0 0 0 0 0 0 0 0 0 0 0 0 127 0" result="hardAlpha"/>
<feOffset dy="4"/>
<feGaussianBlur stdDeviation="2"/>
<feComposite in2="hardAlpha" operator="arithmetic" k2="-1" k3="1"/>
<feColorMatrix type="matrix" values="0 0 0 0 0.949109 0 0 0 0 0.215206 0 0 0 0 0.964086 0 0 0 1 0"/>
<feBlend mode="normal" in2="shape" result="effect1_innerShadow_110_3053"/>
</filter>
<linearGradient id="paint0_linear_110_3053" x1="186.146" y1="161.922" x2="-386.948" y2="483.168" gradientUnits="userSpaceOnUse">
<stop stop-color="#F237F6"/>
<stop offset="0.131" stop-color="#F237F6" stop-opacity="0"/>
</linearGradient>
<clipPath id="clip0_110_3053">
<rect width="238" height="406" fill="white"/>
</clipPath>
</defs>
</svg>
