<svg width="17" height="17" viewBox="0 0 17 17" fill="none" xmlns="http://www.w3.org/2000/svg">
<mask id="mask0_107_1822" style="mask-type:luminance" maskUnits="userSpaceOnUse" x="1" y="1" width="15" height="15">
<path d="M8.63393 15.3538C9.51714 15.3549 10.3919 15.1815 11.2078 14.8435C12.0238 14.5055 12.7649 14.0096 13.3886 13.3843C14.014 12.7606 14.5099 12.0194 14.8479 11.2034C15.1859 10.3875 15.3593 9.51274 15.3582 8.62953C15.3593 7.74633 15.1859 6.8716 14.8479 6.05563C14.5099 5.23966 14.014 4.49852 13.3886 3.87481C12.7649 3.24947 12.0238 2.75354 11.2078 2.41554C10.3919 2.07755 9.51714 1.90413 8.63393 1.90528C7.75072 1.90415 6.876 2.07757 6.06003 2.41557C5.24405 2.75357 4.50292 3.24948 3.87921 3.87481C3.25388 4.49852 2.75796 5.23966 2.41996 6.05563C2.08197 6.8716 1.90855 7.74633 1.90967 8.62953C1.90853 9.51274 2.08194 10.3875 2.41994 11.2034C2.75794 12.0194 3.25386 12.7606 3.87921 13.3843C4.50292 14.0096 5.24405 14.5055 6.06003 14.8435C6.876 15.1815 7.75072 15.3549 8.63393 15.3538Z" fill="white" stroke="white" stroke-width="1.07745" stroke-linejoin="round"/>
<path d="M5.94556 8.62958L7.96283 10.6469L11.9974 6.6123" stroke="black" stroke-width="1.07745" stroke-linecap="round" stroke-linejoin="round"/>
</mask>
<g mask="url(#mask0_107_1822)">
<path d="M0.563232 0.55957H16.7014V16.6978H0.563232V0.55957Z" fill="#09F473"/>
</g>
</svg>
