<svg width="120" height="120" viewBox="0 0 120 120" fill="none" xmlns="http://www.w3.org/2000/svg">
<path d="M67.365 119.745C65.8012 119.472 64.1812 118.729 63.2625 117.908C62.6388 117.254 62.2829 116.389 62.265 115.485C62.265 114.567 62.7337 113.277 63.4762 111.99C63.9262 111.267 64.2787 110.487 64.53 109.665C64.6875 109.099 65.0175 108.18 65.2725 107.595L65.7225 106.523L65.8387 99.3567C65.8987 95.3929 66.015 91.7217 66.1125 91.1517C66.3675 89.5092 66.795 87.9079 67.3612 86.3479L67.7925 85.3129L67.1662 84.9417C66.6 84.5892 66.1312 84.1017 64.275 81.8929C61.9912 79.1967 58.9837 77.7117 54.7237 77.2054C53.3362 77.0704 51.93 76.9692 50.5237 76.9129C44.2725 76.6204 40.6987 75.3117 37.4775 72.1467C35.0737 69.7842 33.825 67.0279 33.3187 62.9667C32.6362 57.4767 31.875 54.6642 30.4687 52.3804C30.1221 51.8164 29.7228 51.2866 29.2762 50.7979L28.71 50.2317L27.4612 51.0342C26.7787 51.4842 25.8187 52.0504 25.35 52.3054C23.7862 53.1642 22.3012 54.1204 20.8762 55.1554C17.3812 57.6942 13.5712 60.8779 11.4825 62.9667C10.545 63.9042 10.0575 64.3129 9.83998 64.2754C8.41498 64.0617 9.50623 57.8892 11.8312 53.2392C14.8012 47.2429 19.8 41.7154 25.5825 37.9842C30.33 34.9167 38.0062 30.6979 41.5575 29.2129C47.865 26.5767 56.0287 23.7229 61.6162 22.2004C62.79 21.8667 63.51 21.5742 63.9975 21.2442C65.0925 20.4829 66.165 20.1117 67.395 20.0929C68.43 20.0742 68.5275 20.0554 69.525 19.3879C70.6987 18.6267 71.0475 18.5854 72.2212 18.9979L72.9825 19.2717L73.92 18.6267L74.8575 18.0004L76.2037 18.0192C77.2387 18.0379 77.7075 18.0004 78.1575 17.8054C78.7237 17.5504 78.7425 17.5129 78.9 16.5754C79.2525 14.5429 79.29 13.5267 79.0762 12.2967C78.8025 10.6767 78.765 4.38793 79.0387 3.15418C79.3312 1.82668 79.5262 1.55293 80.5237 1.06543C82.0087 0.34168 83.1225 0.12793 85.68 0.12793C88.8037 0.12793 90.3862 0.55918 91.56 1.69168C92.6137 2.70793 92.79 5.08918 92.2425 10.6767C91.9087 13.8979 91.8712 14.7979 91.9687 16.9054C92.0062 18.2517 92.1037 19.5229 92.145 19.6992C92.2237 20.0329 92.3025 20.0517 93.435 20.0704C94.5487 20.0892 94.7437 20.1492 95.7975 20.6967C96.8137 21.2254 97.575 21.8704 97.7325 22.3392C97.7512 22.4367 97.9275 22.4367 98.2387 22.3392C98.8425 22.1629 99.3712 22.3579 99.8025 22.8867C100.057 23.2204 100.211 23.2767 100.8 23.2767C101.602 23.2767 101.895 23.4717 102.559 24.4504C102.869 24.8897 103.295 25.2349 103.789 25.4479C104.884 25.9954 106.369 27.5179 106.935 28.7292C107.812 30.5254 107.989 32.6142 107.441 34.4892C107.246 35.1942 107.246 35.2129 107.655 35.8954C108.514 37.3617 108.829 39.1579 108.476 40.6804L108.281 41.5804L108.866 42.1654C111.776 45.0754 111.345 49.8229 107.794 54.0604C107.397 54.5445 107.062 55.0761 106.796 55.6429C106.114 57.4579 105.33 58.7292 104.317 59.7829L103.282 60.8367H102.229C101.175 60.8367 99.69 60.4842 98.79 60.0154C98.4187 59.8204 98.4 59.8204 98.4787 60.0529C98.715 60.9117 99.3 64.4067 99.495 66.3417C99.8062 69.3117 99.7087 73.6279 99.3 75.4842C99.0013 76.859 98.5008 78.1821 97.815 79.4104C97.425 80.0367 97.4062 80.1717 97.4812 80.9329C97.5975 82.0054 97.3462 83.8054 96.915 84.9942C96.3862 86.3817 96.1912 87.0267 96.075 87.7279C95.9775 88.3317 95.9775 88.3317 96.4087 88.3317C96.975 88.3317 97.2862 88.6654 97.2862 89.3292C97.2862 89.6217 97.0312 91.2042 96.72 92.8242C95.8612 97.3767 95.8012 97.8829 95.8012 102.297C95.7825 106.849 95.7825 106.808 96.8175 107.49L99.1425 108.994C101.143 110.322 103.285 111.422 105.529 112.275C108.791 113.565 109.241 113.895 109.241 114.99C109.241 115.478 109.144 115.654 108.735 116.044C107.486 117.255 105.022 117.529 100.061 117C97.4832 116.759 94.8955 116.635 92.3062 116.629C85.47 116.532 84.4725 116.295 83.5762 114.597C83.07 113.622 83.1675 112.35 83.8687 110.262C84.18 109.343 84.4537 108.405 84.69 107.449C85.1587 105.184 84.8475 102.488 83.7525 99.4429L82.815 96.8442C81.8962 94.2079 81.39 89.3817 81.9375 88.2904C82.035 88.0767 82.2112 88.0354 82.68 88.0542L83.265 88.1142L83.7525 87.0979C84.1237 86.2954 84.5325 85.7704 85.6462 84.6567L87.0712 83.2317L86.9925 82.3129C86.9325 81.4354 85.7812 77.1754 85.6237 77.1942C85.5637 77.1942 85.2525 77.6254 84.9 78.1692C84.0412 79.4592 82.1475 81.4504 81.0712 82.1742C80.6025 82.4854 80.2125 82.8567 80.2125 82.9767C80.1937 83.5054 79.7437 84.5404 79.1962 85.2604C78.6675 85.9654 78.63 86.0817 78.7087 86.7042C78.8437 87.6229 78.5512 90.5704 78.2025 92.1154C77.8864 93.2626 77.4541 94.3746 76.9125 95.4342C75.5662 98.2279 74.55 100.725 74.295 101.88C74.1108 102.992 73.9931 104.114 73.9425 105.24C73.8825 106.568 73.7475 107.858 73.65 108.132C73.515 108.503 73.515 108.795 73.6312 109.362C73.7287 109.77 73.7887 110.689 73.7662 111.413C73.7475 112.41 73.8262 113.055 74.1187 114.225C74.625 116.217 74.7225 117.469 74.49 118.212C74.3325 118.68 74.1787 118.857 73.65 119.112C72.4762 119.715 69.1575 120.049 67.3612 119.738L67.365 119.745ZM72.1087 118.144C72.7912 117.949 73.38 117.364 73.38 116.835C73.38 116.599 73.185 115.917 72.9487 115.313C72.48 114.162 71.6775 111.113 71.6775 110.607C71.6775 110.352 71.6962 110.333 72.0862 110.547L72.5175 110.783V110.235C72.4549 109.731 72.3431 109.233 72.1837 108.75C71.8125 107.637 71.775 107.618 69.4087 107.479L67.8075 107.4L67.2225 107.967C66.9008 108.298 66.6189 108.665 66.3825 109.062C66.1275 109.568 66.03 110.333 66.1875 110.505C66.225 110.565 66.6187 110.505 67.0462 110.408C67.3 110.332 67.5618 110.287 67.8262 110.273C67.8262 110.292 67.395 110.644 66.8512 111.015C64.5075 112.774 63.6862 113.847 63.6862 115.215C63.6862 116.64 65.0325 117.754 67.1437 118.088C68.5875 118.302 71.4 118.362 72.105 118.148L72.1087 118.144ZM103.886 115.819C104.471 115.114 104.392 114.394 103.65 113.573C103.219 113.142 102.731 112.77 102.184 112.478C101.636 112.185 101.089 111.852 100.541 111.503C99.551 110.861 98.5338 110.262 97.4925 109.707C96.5925 109.219 95.715 108.709 94.8562 108.165L94.5037 107.892V102.522C94.5037 97.2304 94.485 97.1517 94.2112 97.2304C92.8425 97.6017 90.5775 97.7779 87.7087 97.7179L84.6037 97.6804L85.0537 98.7754C85.8937 100.845 86.325 103.62 86.325 106.804C86.325 107.997 86.2462 108.424 85.9537 109.264C85.7962 109.673 85.6612 110.085 85.5225 110.494C85.4625 110.67 85.68 110.805 86.4787 111.042C87.0637 111.218 87.9225 111.394 88.4137 111.45L89.3137 111.548L89.2162 112.448C89.1187 113.464 89.235 114.537 89.49 114.87C89.6475 115.065 90.2325 115.144 92.9475 115.26C94.9987 115.358 97.2262 115.572 98.9812 115.827C100.504 116.063 102.146 116.258 102.634 116.258C103.455 116.277 103.534 116.239 103.882 115.827L103.886 115.819ZM72.6187 106.68C72.6975 106.62 72.8137 105.567 72.855 104.318C73.0125 100.823 73.1475 100.313 74.9062 96.3679C76.35 93.1467 77.115 90.1392 77.055 88.0092L77.0175 86.7379L76.47 87.2667C75.3375 88.3992 76.1175 86.6217 77.4675 85.0392C78.4837 83.8279 78.8362 83.1642 78.99 82.0917C79.0687 81.6604 79.2262 81.4467 79.89 80.9404C82.3735 79.0643 84.2871 76.5354 85.4175 73.6354C85.6912 72.9304 86.3925 70.5304 86.9812 68.3029C88.0762 64.1817 88.6612 62.4042 89.19 61.6429C89.385 61.3504 89.4637 61.2904 89.4262 61.4854C89.143 62.5328 88.9214 63.5959 88.7625 64.6692C88.605 65.6254 88.3125 67.5004 88.1175 68.8092C87.7462 71.4867 87.3562 73.2042 86.8275 74.5317L86.475 75.4317L87.4125 77.8542C88.3875 80.3329 88.8375 82.1329 88.9162 83.8692L88.9762 84.8442L88.215 85.0017C87.2102 85.1795 86.3136 85.7401 85.7137 86.5654C85.05 87.5217 84.6787 88.3054 84.855 88.4779C84.9337 88.5567 85.89 88.7329 86.985 88.8679C88.6837 89.0629 89.3287 89.0629 91.575 88.9279C92.55 88.8904 93.51 88.7929 94.4662 88.6542C94.68 88.5754 94.8975 88.1479 95.2462 87.0342C96.0487 84.4767 96.2025 83.5767 96.105 81.7804L96.0262 80.1979L96.435 79.6692C97.3912 78.4579 98.1337 76.2717 98.445 73.7104C98.8162 70.5867 98.1337 64.0429 96.8625 58.4179C96.2587 55.7404 96.0037 54.1392 96.0037 52.9692V51.9342L95.0475 52.0317C91.6087 52.4029 87.45 52.3054 84.9112 51.7767C83.5237 51.5029 80.0287 50.4679 79.2675 50.1342L78.6637 49.8604L78.585 50.5429C78.525 50.9142 78.4687 51.2854 78.39 51.6754C78.2737 52.0842 78.3112 52.1817 79.035 52.8867C79.935 53.8054 80.2087 54.2742 80.2087 54.8967C80.2087 55.2867 79.995 55.6017 78.9 56.7342C78.1149 57.572 77.2438 58.3249 76.3012 58.9804L75.03 59.8392L74.4825 61.7329C72.5287 68.6667 72.1575 74.9742 73.4475 79.4854L73.7587 80.6179L73.1325 81.3979C70.7887 84.3454 69.4012 86.5917 69.1875 87.8442C69.0625 88.4609 68.9187 89.0737 68.7562 89.6817C68.25 91.6167 67.8562 94.4479 67.6837 97.5154C67.5635 100.083 67.3948 102.649 67.1775 105.21L67.08 105.972L68.055 106.264C68.6025 106.44 69.4237 106.635 69.8925 106.714C70.77 106.849 72.3937 106.812 72.645 106.677L72.6187 106.68ZM91.5825 95.9367C93.105 95.8392 94.4925 95.6029 94.7662 95.3704C94.8825 95.2917 95.0212 94.8829 95.0587 94.4704L95.1562 93.7279L93.945 94.0017C92.9887 94.1967 92.0325 94.3129 91.0725 94.3917C88.7662 94.4892 86.445 94.4292 84.1575 94.1967C83.3962 94.0804 83.3962 94.0804 83.6287 95.0742C83.8237 95.8167 83.865 95.8542 85.8562 95.9929C87.1837 96.1092 89.04 96.0904 91.5787 95.9329L91.5825 95.9367ZM90.3112 92.5392C92.3025 92.3629 94.785 91.9354 95.2725 91.6804C95.43 91.6017 95.565 91.3092 95.625 90.9754L95.8012 89.9404L95.8987 89.4529L95.4112 89.5504C93.2437 90.0004 91.6012 90.1354 88.32 90.1354C85.1175 90.1354 84.7462 90.1167 83.9062 89.8242C83.5834 89.6881 83.2397 89.6082 82.89 89.5879C82.755 89.6667 82.7325 90.7804 82.8525 91.5604C82.9312 92.0292 83.01 92.1079 83.4787 92.2429C84.9637 92.6517 87.465 92.7492 90.315 92.5167L90.3112 92.5392ZM54.0637 74.9217C59.0625 73.4779 65.6062 69.2367 70.9575 63.9267C72.6975 62.1867 72.9112 61.9542 73.1437 61.1742L73.455 60.1767C73.4925 60.0979 73.1812 59.9629 72.7725 59.8654C71.7 59.6104 70.8787 58.9879 70.8787 58.4217C70.8787 58.0879 70.6837 57.7579 70.1175 57.1504C69.1987 56.1154 68.9662 55.6654 68.8687 54.6717L68.79 53.8692L67.695 53.0892C67.0687 52.6392 64.8825 51.4279 62.5575 50.2579C60.7872 49.3943 59.0544 48.456 57.3637 47.4454C55.41 46.1367 54.1012 44.5729 53.3587 42.7204C53.2237 42.3492 53.0475 42.0379 52.9875 42.0379C52.83 42.0379 48.435 46.2754 46.56 48.2667C41.9325 53.1492 38.7487 57.3867 36.735 61.3129C36.2287 62.2879 35.6812 63.4429 35.5237 63.8704L35.2312 64.6504L35.5837 65.9592C35.7975 66.6642 36.2475 67.8154 36.6 68.4979C37.83 70.9204 39.2962 72.3829 41.7187 73.5754C44.3175 74.8654 46.62 75.3154 50.4675 75.2554C52.5375 75.2367 53.145 75.1767 54.06 74.9029L54.0637 74.9217ZM14.61 57.7917C17.8912 54.8817 22.4212 51.6979 27.9712 48.3979C31.605 46.2304 45.6487 39.1992 52.1137 36.3267C53.2875 35.7979 54.3412 35.3104 54.4575 35.2542C54.5737 35.1754 54.9075 34.3354 55.2187 33.3979C56.5875 29.0629 57.27 28.2042 59.7487 27.6379C60.06 27.5592 60.1387 27.4617 60.1387 27.1504C60.1387 26.5842 60.5287 25.2754 60.8625 24.6904C61.1175 24.2404 61.1175 24.2217 60.9 24.2817C60.765 24.3192 59.9437 24.5554 59.085 24.8104C47.1712 28.2492 36.7612 32.8167 27.7762 38.5204C18.1875 44.6142 12.66 51.9192 11.0587 60.6679L10.9425 61.3129L12.1162 60.1617C12.7425 59.5167 13.875 58.4629 14.6175 57.8179L14.61 57.7917ZM102.99 59.4529C103.946 58.9654 105.431 56.7192 105.979 54.9417C106.136 54.3154 106.447 53.7304 106.897 53.2429C108.341 51.6417 109.534 48.7317 109.552 46.7404C109.552 43.6354 107.794 42.4429 105.236 43.7704C104.902 43.9279 104.632 44.0442 104.591 44.0067C104.456 43.8717 105.176 43.1667 106.057 42.6192C107.209 41.8579 107.426 41.4079 107.426 39.7879C107.443 38.4785 107.054 37.196 106.312 36.1167C105.96 35.5879 105.825 35.2392 105.881 35.0217L106.234 33.7129C106.721 31.9729 106.545 29.9817 105.784 28.7142C104.651 26.8017 103.264 25.8642 101.329 25.7067L100.196 25.6279L100.86 26.3704C102.832 28.5004 103.789 31.1742 103.399 33.4617C103.204 34.6354 103.027 34.8679 101.895 35.3179L101.231 35.5917L101.31 36.4917C101.445 37.9579 101.194 39.0304 100.256 41.0029C99.7875 42.0004 99.435 42.8967 99.4762 42.9942C99.5925 43.3279 100.882 43.9504 101.899 44.2054L102.896 44.4417L102.27 44.6554C101.449 44.9104 101.272 45.2817 101.272 46.6279C101.272 47.8579 101.449 48.3679 102.345 49.7142C102.754 50.2992 103.027 50.9067 103.069 51.2554C103.147 51.8029 103.129 51.8404 102.679 51.9979C102.169 52.1411 101.644 52.2266 101.115 52.2529C99.2775 52.3692 99.1425 52.4292 98.3212 53.2092C97.5787 53.9142 97.56 53.9517 97.56 54.7317C97.56 55.8042 97.9687 57.9754 98.2237 58.2679C98.5575 58.6204 100.41 59.5392 101.134 59.6742C101.758 59.8309 102.418 59.7549 102.99 59.4604V59.4529ZM75.9375 57.9904C77.13 57.0529 78.0675 56.1154 78.5925 55.3129C78.9262 54.8254 78.945 54.7279 78.7875 54.3154C78.5137 53.6892 76.7175 52.0692 75.72 51.5817C75.0553 51.2839 74.3522 51.0807 73.6312 50.9779L72.4012 50.8204L71.64 49.8642C70.0575 47.9104 69.18 46.3879 67.9275 43.4367C66.8325 40.9354 65.8762 39.4729 64.3537 38.0254C63.7275 37.4404 63.2812 36.9529 63.3187 36.9529C63.3975 36.9529 64.14 37.3242 64.9987 37.7742C66.4237 38.5354 66.6 38.5954 67.245 38.4979C69.57 38.2242 71.6212 35.5504 72.3637 31.8004C72.5775 30.7467 73.0087 29.6704 73.4587 29.0254C73.4775 29.0067 74.3775 29.5917 75.4312 30.3529C78.1087 32.2467 78.6937 32.5392 80.2162 32.5992C81.2137 32.6367 81.78 32.5617 83.5762 32.1304C87.405 31.1929 91.545 30.8217 94.065 31.1554C95.49 31.3504 97.5412 31.9767 99.0637 32.6967C100.567 33.4017 100.86 33.4392 101.347 33.0079C101.756 32.6554 101.756 32.5992 101.756 31.2904C101.737 29.3554 101.032 27.2667 99.96 26.0179C99.4125 25.3729 97.8712 24.3192 96.345 23.5167C95.8024 23.2289 95.2624 22.9364 94.725 22.6392C94.0012 22.2079 93.1837 22.2679 90.9562 22.8529C88.3762 23.5167 87.6937 23.5167 84.7462 22.7554C82.245 22.1292 82.0912 22.1104 79.6275 22.5004C78.3187 22.6954 75.0375 22.5792 73.9425 22.2867C73.395 22.1292 72.8475 21.9754 72.3225 21.7804C71.3662 21.4092 69.705 21.3492 68.2012 21.6229C65.2125 22.1517 62.9475 23.7717 62.1262 25.9767C61.695 27.0904 61.755 27.6192 62.3212 27.9679C63.2212 28.5342 64.41 30.0792 64.41 30.6829C64.41 30.7204 64.1175 30.4692 63.7837 30.1167C62.9437 29.2392 62.1825 28.8454 61.2825 28.8454C60.7002 28.8616 60.134 29.0401 59.6476 29.3608C59.1613 29.6814 58.7742 30.1316 58.53 30.6604C58.2672 31.3504 58.0455 32.0554 57.8662 32.7717C57.3187 34.7629 56.8312 35.8204 55.7962 37.2267C54.8775 38.4979 54.7425 39.0642 55.0725 40.4892C55.8937 44.0817 57.3187 45.5292 63.2737 48.9079C66.3975 50.6854 67.9987 51.6829 69.1725 52.5604C70.0725 53.2242 70.0912 53.2654 70.0125 53.7717C69.8362 54.9454 70.5787 56.2129 72.045 57.2479C72.4162 57.5029 72.6487 57.7767 72.6487 57.9717C72.6487 58.3242 73.6462 58.8117 74.3662 58.8117C74.775 58.8117 75.09 58.6354 75.93 57.9904H75.9375ZM100.02 51.4054C102.285 51.4842 102.401 51.3079 101.194 49.9017C99.9225 48.4354 99.5737 47.2467 100.042 45.9379L100.237 45.4317L99.435 45.0417C99.1612 44.9067 98.8875 44.7679 98.6137 44.6704C98.4787 45.1992 98.34 45.7054 98.2237 46.2342C97.9312 47.4267 97.5787 50.5129 97.56 51.8217C97.56 51.9379 97.755 51.9004 98.0887 51.6867C98.5575 51.4129 98.7937 51.3754 100.024 51.4129L100.02 51.4054ZM92.4225 51.2892C93.7912 51.2104 95.1975 51.1129 95.5687 51.0529L96.2512 50.9554L96.33 48.7092C96.4462 45.5067 96.915 43.6129 98.3025 40.5829C99.2775 38.4342 99.7087 36.5592 99.495 35.1529C99.4162 34.5492 99.3787 34.5079 98.5575 34.1554C97.0537 33.5583 95.4876 33.1319 93.8887 32.8842C92.3475 32.6704 87.8137 32.7867 86.115 33.1204C85.41 33.2367 84.1237 33.5104 83.265 33.7242C81.135 34.2117 80.0025 34.1554 78.3825 33.4504C76.7812 32.7454 75.765 32.1042 74.8087 31.2042C74.0475 30.4992 73.9687 30.4617 73.7737 30.6979C73.6162 30.8742 73.5375 31.4029 73.4812 32.5354C73.4212 34.2754 73.1475 35.1904 72.3862 36.4204C72.2171 36.6735 72.0727 36.9422 71.955 37.2229C71.955 37.2829 72.54 37.9654 73.2637 38.7079C75.765 41.3067 76.995 41.9704 78.9675 41.8317C79.6125 41.7717 80.0625 41.7942 80.0625 41.8692C80.0625 42.0267 78.7912 43.0204 78.2662 43.2942C78.0112 43.4292 77.955 43.5679 77.9925 43.8604L78.3037 45.9117C78.48 47.0854 78.615 47.6292 78.7912 47.7867C79.26 48.1767 81.6825 49.4292 83.205 50.0517C85.1962 50.8542 86.2912 51.1467 87.8137 51.2817C89.6887 51.4392 89.7262 51.4392 92.4225 51.2817V51.2892ZM76.2712 49.1404C76.3087 49.0804 76.1737 47.9479 75.9187 46.6392C75.6075 44.8617 75.4312 44.2167 75.2362 44.0404C75.1012 43.9242 74.3775 43.4142 73.6537 42.8892C72.7028 42.2054 71.8018 41.4547 70.9575 40.6429L69.6112 39.3154L68.8875 39.6867L68.1262 40.0954C68.1903 40.4005 68.295 40.6957 68.4375 40.9729C68.6512 41.4417 69.0825 42.5929 69.3937 43.5304C70.215 45.9717 70.86 47.1454 72.48 49.2717L73.0837 50.0742L74.235 50.2504C74.88 50.3479 75.525 50.4867 75.7012 50.5429C75.975 50.6592 76.0125 50.6029 76.0912 49.9767C76.1287 49.7029 76.1887 49.4104 76.2675 49.1367L76.2712 49.1404ZM101.017 24.8442C102.015 24.7467 102.191 24.6079 101.76 24.1617C101.486 23.8879 100.86 23.8692 100.354 24.1017C100.02 24.2592 99.945 24.2179 99.4162 23.6517C98.8687 23.0479 98.8312 23.0254 98.145 23.1042C97.5187 23.1829 97.4212 23.1642 97.3425 22.9092C97.0986 22.4903 96.7955 22.1089 96.4425 21.7767C95.9989 21.2727 95.4443 20.8785 94.8225 20.6254C93.6112 20.1567 92.9287 20.2167 91.7737 20.8617C88.4325 22.6767 88.5712 22.6579 85.3462 21.8367C82.3387 21.0754 80.0925 20.2954 79.3687 19.8042C78.765 19.3954 77.475 18.9454 76.3987 18.8067C75.5962 18.6904 75.09 18.8667 74.3287 19.4892L73.92 19.8229L74.2912 20.4679C74.7975 21.3679 74.7412 21.4242 73.98 20.7604C73.1587 20.0779 72.1837 19.6092 71.5575 19.5867C71.1075 19.5867 69.78 20.1717 69.6225 20.4267C69.5625 20.5054 69.975 20.6029 70.5225 20.6404C71.0887 20.7004 71.8687 20.8954 72.3975 21.1092C73.7662 21.6942 74.4675 21.8892 75.7162 22.0092C77.085 22.1442 79.5637 21.9904 79.8562 21.7542C80.0137 21.6192 80.4412 21.5967 81.3412 21.6754C82.5337 21.7542 83.0212 21.8704 85.8525 22.6317C87.495 23.0817 88.6462 23.0404 90.6 22.5154C91.5 22.2604 92.6325 22.0092 93.1012 21.9492C93.9037 21.8704 94.0575 21.9117 95.31 22.4779C97.3012 23.3779 98.3587 23.9442 98.9437 24.4692C99.5287 24.9754 99.6075 24.9754 101.014 24.8592L101.017 24.8442ZM89.8837 21.4279L91.0762 20.8017L91.0387 19.5904C91.02 18.7504 90.9787 17.9292 90.9412 17.1117L90.8437 15.8629L89.6512 16.7817C88.9462 17.3292 88.2637 17.7379 87.9712 17.7979C87.1125 17.9554 82.875 17.7979 82.4812 17.5842C81.9567 17.1967 81.4661 16.7651 81.015 16.2942L79.92 15.1804L79.9012 15.8442C79.9012 16.1967 79.8637 16.8004 79.785 17.1717C79.6875 17.8767 79.6875 17.8954 80.4487 18.8517C80.8575 19.3804 81.1912 19.8492 81.1912 19.9054C81.1912 20.2767 86.835 22.0354 88.1062 22.0542C88.515 22.0542 89.025 21.8779 89.8837 21.4279ZM87.6187 16.9917C89.025 16.7179 89.7075 15.7017 90.2362 13.1254C90.7837 10.3504 91.0575 5.99668 90.8025 4.14043C90.5662 2.46043 88.6912 1.71793 85.1175 1.83418C82.89 1.91293 81.9712 2.12668 81.21 2.77168C80.7412 3.16168 80.7412 3.20293 80.5275 5.05543C80.1375 8.61043 80.7225 13.6692 81.7387 15.5629C82.2262 16.4817 82.6575 16.8117 83.5537 16.9692C84.57 17.1454 86.7375 17.1454 87.615 16.9879L87.6187 16.9917Z" fill="black"/>
</svg>
