<svg xmlns="http://www.w3.org/2000/svg" xmlns:xlink="http://www.w3.org/1999/xlink" width="500" zoomAndPan="magnify" viewBox="0 0 375 374.999991" height="500" preserveAspectRatio="xMidYMid meet" version="1.0"><defs><g/><clipPath id="2379a9a930"><path d="M 158.867188 87.523438 L 179.09375 87.523438 L 179.09375 107.75 L 158.867188 107.75 Z M 158.867188 87.523438 " clip-rule="nonzero"/></clipPath><clipPath id="2a414c0df9"><path d="M 168.980469 87.523438 C 163.394531 87.523438 158.867188 92.050781 158.867188 97.636719 C 158.867188 103.222656 163.394531 107.75 168.980469 107.75 C 174.566406 107.75 179.09375 103.222656 179.09375 97.636719 C 179.09375 92.050781 174.566406 87.523438 168.980469 87.523438 Z M 168.980469 87.523438 " clip-rule="nonzero"/></clipPath></defs><g fill="#00f0ff" fill-opacity="1"><g transform="translate(141.562254, 212.274581)"><g><path d="M 48.328125 -39.328125 L 34.890625 -25.3125 L 34.890625 0 L 11.875 0 L 11.875 -100.09375 L 34.890625 -100.09375 L 34.890625 -53.328125 L 79.21875 -100.09375 L 104.953125 -100.09375 L 63.484375 -55.484375 L 107.375 0 L 80.359375 0 Z M 48.328125 -39.328125 "/></g></g></g><g clip-path="url(#2379a9a930)"><g clip-path="url(#2a414c0df9)"><path fill="#ff1cf7" d="M 158.867188 87.523438 L 179.09375 87.523438 L 179.09375 107.75 L 158.867188 107.75 Z M 158.867188 87.523438 " fill-opacity="1" fill-rule="nonzero"/></g></g><g fill="#ffffff" fill-opacity="1"><g transform="translate(101.735612, 274.99047)"><g><path d="M 2.390625 0.078125 C 1.878906 0.078125 1.410156 -0.03125 0.984375 -0.25 C 0.554688 -0.46875 0.207031 -0.78125 -0.0625 -1.1875 L 0.5 -1.8125 C 0.976562 -1.09375 1.613281 -0.734375 2.40625 -0.734375 C 3.5 -0.734375 4.046875 -1.382812 4.046875 -2.6875 L 4.046875 -8.046875 L 0.8125 -8.046875 L 0.8125 -8.84375 L 4.96875 -8.84375 L 4.96875 -2.71875 C 4.96875 -1.789062 4.75 -1.09375 4.3125 -0.625 C 3.882812 -0.15625 3.242188 0.078125 2.390625 0.078125 Z M 2.390625 0.078125 "/></g></g></g><g fill="#ffffff" fill-opacity="1"><g transform="translate(115.765331, 274.99047)"><g><path d="M 6.984375 -2.359375 L 2.0625 -2.359375 L 1 0 L 0.03125 0 L 4.0625 -8.84375 L 5 -8.84375 L 9.03125 0 L 8.046875 0 Z M 6.65625 -3.125 L 4.53125 -7.875 L 2.40625 -3.125 Z M 6.65625 -3.125 "/></g></g></g><g fill="#ffffff" fill-opacity="1"><g transform="translate(132.523744, 274.99047)"><g><path d="M 7.015625 -4.5625 C 7.597656 -4.4375 8.046875 -4.1875 8.359375 -3.8125 C 8.671875 -3.4375 8.828125 -2.953125 8.828125 -2.359375 C 8.828125 -1.597656 8.546875 -1.015625 7.984375 -0.609375 C 7.429688 -0.203125 6.609375 0 5.515625 0 L 1.4375 0 L 1.4375 -8.84375 L 5.265625 -8.84375 C 6.242188 -8.84375 7.003906 -8.644531 7.546875 -8.25 C 8.097656 -7.851562 8.375 -7.296875 8.375 -6.578125 C 8.375 -6.085938 8.25 -5.671875 8 -5.328125 C 7.757812 -4.984375 7.429688 -4.726562 7.015625 -4.5625 Z M 2.375 -8.078125 L 2.375 -4.859375 L 5.203125 -4.859375 C 5.910156 -4.859375 6.457031 -4.992188 6.84375 -5.265625 C 7.238281 -5.546875 7.4375 -5.945312 7.4375 -6.46875 C 7.4375 -6.988281 7.238281 -7.382812 6.84375 -7.65625 C 6.457031 -7.9375 5.910156 -8.078125 5.203125 -8.078125 Z M 5.5 -0.765625 C 6.289062 -0.765625 6.890625 -0.898438 7.296875 -1.171875 C 7.703125 -1.441406 7.90625 -1.863281 7.90625 -2.4375 C 7.90625 -3.539062 7.101562 -4.09375 5.5 -4.09375 L 2.375 -4.09375 L 2.375 -0.765625 Z M 5.5 -0.765625 "/></g></g></g><g fill="#ffffff" fill-opacity="1"><g transform="translate(149.749582, 274.99047)"><g><path d="M 7.015625 -4.5625 C 7.597656 -4.4375 8.046875 -4.1875 8.359375 -3.8125 C 8.671875 -3.4375 8.828125 -2.953125 8.828125 -2.359375 C 8.828125 -1.597656 8.546875 -1.015625 7.984375 -0.609375 C 7.429688 -0.203125 6.609375 0 5.515625 0 L 1.4375 0 L 1.4375 -8.84375 L 5.265625 -8.84375 C 6.242188 -8.84375 7.003906 -8.644531 7.546875 -8.25 C 8.097656 -7.851562 8.375 -7.296875 8.375 -6.578125 C 8.375 -6.085938 8.25 -5.671875 8 -5.328125 C 7.757812 -4.984375 7.429688 -4.726562 7.015625 -4.5625 Z M 2.375 -8.078125 L 2.375 -4.859375 L 5.203125 -4.859375 C 5.910156 -4.859375 6.457031 -4.992188 6.84375 -5.265625 C 7.238281 -5.546875 7.4375 -5.945312 7.4375 -6.46875 C 7.4375 -6.988281 7.238281 -7.382812 6.84375 -7.65625 C 6.457031 -7.9375 5.910156 -8.078125 5.203125 -8.078125 Z M 5.5 -0.765625 C 6.289062 -0.765625 6.890625 -0.898438 7.296875 -1.171875 C 7.703125 -1.441406 7.90625 -1.863281 7.90625 -2.4375 C 7.90625 -3.539062 7.101562 -4.09375 5.5 -4.09375 L 2.375 -4.09375 L 2.375 -0.765625 Z M 5.5 -0.765625 "/></g></g></g><g fill="#ffffff" fill-opacity="1"><g transform="translate(166.975416, 274.99047)"><g><path d="M 6.984375 -2.359375 L 2.0625 -2.359375 L 1 0 L 0.03125 0 L 4.0625 -8.84375 L 5 -8.84375 L 9.03125 0 L 8.046875 0 Z M 6.65625 -3.125 L 4.53125 -7.875 L 2.40625 -3.125 Z M 6.65625 -3.125 "/></g></g></g><g fill="#ffffff" fill-opacity="1"><g transform="translate(183.733829, 274.99047)"><g><path d="M 7.484375 0 L 5.453125 -2.84375 C 5.234375 -2.820312 5 -2.8125 4.75 -2.8125 L 2.375 -2.8125 L 2.375 0 L 1.4375 0 L 1.4375 -8.84375 L 4.75 -8.84375 C 5.882812 -8.84375 6.769531 -8.570312 7.40625 -8.03125 C 8.050781 -7.5 8.375 -6.757812 8.375 -5.8125 C 8.375 -5.125 8.195312 -4.539062 7.84375 -4.0625 C 7.488281 -3.582031 6.988281 -3.238281 6.34375 -3.03125 L 8.5 0 Z M 4.734375 -3.609375 C 5.609375 -3.609375 6.273438 -3.800781 6.734375 -4.1875 C 7.203125 -4.570312 7.4375 -5.113281 7.4375 -5.8125 C 7.4375 -6.53125 7.203125 -7.082031 6.734375 -7.46875 C 6.273438 -7.851562 5.609375 -8.046875 4.734375 -8.046875 L 2.375 -8.046875 L 2.375 -3.609375 Z M 4.734375 -3.609375 "/></g></g></g><g fill="#ffffff" fill-opacity="1"><g transform="translate(200.568052, 274.99047)"><g/></g></g><g fill="#ffffff" fill-opacity="1"><g transform="translate(211.578527, 274.99047)"><g><path d="M 4.1875 -4.15625 L 2.375 -2.328125 L 2.375 0 L 1.4375 0 L 1.4375 -8.84375 L 2.375 -8.84375 L 2.375 -3.5 L 7.578125 -8.84375 L 8.640625 -8.84375 L 4.8125 -4.84375 L 8.90625 0 L 7.796875 0 Z M 4.1875 -4.15625 "/></g></g></g><g fill="#ffffff" fill-opacity="1"><g transform="translate(228.261151, 274.99047)"><g><path d="M 8.828125 -8.84375 L 8.828125 0 L 7.90625 0 L 7.90625 -4.078125 L 2.375 -4.078125 L 2.375 0 L 1.4375 0 L 1.4375 -8.84375 L 2.375 -8.84375 L 2.375 -4.90625 L 7.90625 -4.90625 L 7.90625 -8.84375 Z M 8.828125 -8.84375 "/></g></g></g><g fill="#ffffff" fill-opacity="1"><g transform="translate(246.232322, 274.99047)"><g><path d="M 6.984375 -2.359375 L 2.0625 -2.359375 L 1 0 L 0.03125 0 L 4.0625 -8.84375 L 5 -8.84375 L 9.03125 0 L 8.046875 0 Z M 6.65625 -3.125 L 4.53125 -7.875 L 2.40625 -3.125 Z M 6.65625 -3.125 "/></g></g></g><g fill="#ffffff" fill-opacity="1"><g transform="translate(262.99074, 274.99047)"><g><path d="M 8.828125 -8.84375 L 8.828125 0 L 8.0625 0 L 2.375 -7.1875 L 2.375 0 L 1.4375 0 L 1.4375 -8.84375 L 2.21875 -8.84375 L 7.90625 -1.671875 L 7.90625 -8.84375 Z M 8.828125 -8.84375 "/></g></g></g><g fill="#ff1cf7" fill-opacity="1"><g transform="translate(110.144119, 244.244859)"><g><path d="M 30.3125 1.71875 C 23.539062 1.71875 17.316406 0.457031 11.640625 -2.0625 C 5.972656 -4.59375 1.332031 -8.195312 -2.28125 -12.875 L 10.578125 -28.3125 C 16.015625 -20.96875 22.210938 -17.296875 29.171875 -17.296875 C 38.609375 -17.296875 43.328125 -22.828125 43.328125 -33.890625 L 43.328125 -81.5 L 8.15625 -81.5 L 8.15625 -100.09375 L 66.34375 -100.09375 L 66.34375 -35.171875 C 66.34375 -22.878906 63.289062 -13.65625 57.1875 -7.5 C 51.09375 -1.351562 42.132812 1.71875 30.3125 1.71875 Z M 30.3125 1.71875 "/></g></g></g></svg>