<svg width="115" height="252" viewBox="0 0 115 252" fill="none" xmlns="http://www.w3.org/2000/svg">
<circle cx="109.371" cy="6.56637" r="5.5" transform="rotate(90.2237 109.371 6.56637)" fill="#00F0FF"/>
<circle cx="75.3709" cy="6.43356" r="5.5" transform="rotate(90.2237 75.3709 6.43356)" fill="#00F0FF"/>
<circle cx="7.37139" cy="6.16794" r="5.5" transform="rotate(90.2237 7.37139 6.16794)" fill="#00F0FF"/>
<circle cx="41.3711" cy="6.30075" r="5.5" transform="rotate(90.2237 41.3711 6.30075)" fill="#00F0FF"/>
<circle cx="109.183" cy="54.5664" r="5.5" transform="rotate(90.2237 109.183 54.5664)" fill="#00F0FF"/>
<circle cx="75.1834" cy="54.4336" r="5.5" transform="rotate(90.2237 75.1834 54.4336)" fill="#00F0FF"/>
<circle cx="7.18413" cy="54.1679" r="5.5" transform="rotate(90.2237 7.18413 54.1679)" fill="#00F0FF"/>
<circle cx="41.1839" cy="54.3008" r="5.5" transform="rotate(90.2237 41.1839 54.3008)" fill="#00F0FF"/>
<circle cx="108.996" cy="102.565" r="5.5" transform="rotate(90.2237 108.996 102.565)" fill="#00F0FF"/>
<circle cx="74.9961" cy="102.433" r="5.5" transform="rotate(90.2237 74.9961 102.433)" fill="#00F0FF"/>
<circle cx="6.99663" cy="102.167" r="5.5" transform="rotate(90.2237 6.99663 102.167)" fill="#00F0FF"/>
<circle cx="40.9964" cy="102.3" r="5.5" transform="rotate(90.2237 40.9964 102.3)" fill="#00F0FF"/>
<circle cx="108.808" cy="150.565" r="5.5" transform="rotate(90.2237 108.808 150.565)" fill="#00F0FF"/>
<circle cx="74.8086" cy="150.433" r="5.5" transform="rotate(90.2237 74.8086 150.433)" fill="#00F0FF"/>
<circle cx="6.80913" cy="150.167" r="5.5" transform="rotate(90.2237 6.80913 150.167)" fill="#00F0FF"/>
<circle cx="40.8089" cy="150.3" r="5.5" transform="rotate(90.2237 40.8089 150.3)" fill="#00F0FF"/>
<circle cx="108.621" cy="198.564" r="5.5" transform="rotate(90.2237 108.621 198.564)" fill="#00F0FF"/>
<circle cx="74.6214" cy="198.433" r="5.5" transform="rotate(90.2237 74.6214 198.433)" fill="#00F0FF"/>
<circle cx="6.62188" cy="198.167" r="5.5" transform="rotate(90.2237 6.62188 198.167)" fill="#00F0FF"/>
<circle cx="40.6216" cy="198.3" r="5.5" transform="rotate(90.2237 40.6216 198.3)" fill="#00F0FF"/>
<circle cx="108.438" cy="245.564" r="5.5" transform="rotate(90.2237 108.438 245.564)" fill="#00F0FF"/>
<circle cx="74.4378" cy="245.432" r="5.5" transform="rotate(90.2237 74.4378 245.432)" fill="#00F0FF"/>
<circle cx="6.43828" cy="245.166" r="5.5" transform="rotate(90.2237 6.43828 245.166)" fill="#00F0FF"/>
<circle cx="40.438" cy="245.299" r="5.5" transform="rotate(90.2237 40.438 245.299)" fill="#00F0FF"/>
</svg>
