<svg width="98" height="70" viewBox="0 0 98 70" fill="none" xmlns="http://www.w3.org/2000/svg">
<path d="M16.5872 45.1495C18.9012 45.4113 21.2112 44.5703 23.186 42.7472C24.769 40.6489 25.7842 37.757 26.0402 34.6165C26.3249 33.4018 26.4248 32.1074 26.3327 30.8276C26.2406 29.5477 25.9588 28.3148 25.5077 27.2186C23.9521 25.5204 22.0203 24.7792 20.1103 25.1477H15.356L12.7191 45.1495H16.5872ZM1.03804 69.7902C0.929346 69.791 0.821866 69.756 0.723216 69.6877C0.624566 69.6194 0.537162 69.5195 0.467197 69.3951C0.398154 69.2709 0.348548 69.1252 0.322013 68.9687C0.295477 68.8121 0.292684 68.6487 0.313835 68.4903L7.29604 15.4813C7.32957 15.2311 7.42009 15.006 7.55215 14.8445C7.68422 14.683 7.84966 14.595 8.02025 14.5955H23.071C24.9832 14.3534 26.9078 14.7313 28.7135 15.7034C30.5191 16.6755 32.1633 18.219 33.5336 20.2284C34.6786 22.4009 35.4609 24.9503 35.8157 27.6652C36.1706 30.3801 36.0878 33.1824 35.5742 35.8399C35.2408 38.4436 34.6294 40.9501 33.7637 43.2634C32.8796 45.5676 31.755 47.6456 30.4323 49.4188C28.8646 51.6168 26.9928 53.2723 24.9497 54.2679C22.5019 55.3113 19.9623 55.7926 17.4179 55.6952H11.3346L9.59221 68.9108C9.55868 69.161 9.46816 69.3861 9.3361 69.5476C9.20403 69.7091 9.03859 69.7971 8.868 69.7966H1.03804V69.7902Z" fill="white"/>
<path d="M53.526 55.6937C53.4198 55.6925 53.315 55.6572 53.2187 55.5901C53.1225 55.523 53.0369 55.4258 52.968 55.305C52.8986 55.181 52.8489 55.0354 52.8223 54.8787C52.7958 54.7221 52.7931 54.5585 52.8146 54.4002L55.9031 30.9447C56.1971 28.7144 56.1246 27.1214 55.6986 26.4333C55.4388 26.0191 54.6549 25.3245 52.346 25.3245H46.7355L42.8503 54.8143C42.8168 55.0645 42.7263 55.2896 42.5942 55.4511C42.4622 55.6126 42.2967 55.7006 42.1261 55.7001H34.3601C34.2529 55.6986 34.1471 55.6625 34.0501 55.5943C33.9531 55.5261 33.867 55.4275 33.7978 55.305C33.7287 55.1808 33.6791 55.0351 33.6526 54.8786C33.626 54.722 33.6233 54.5585 33.6444 54.4002L40.6138 1.38474C40.6474 1.13455 40.7379 0.909496 40.8699 0.747977C41.002 0.586457 41.1674 0.498475 41.338 0.499026H49.1041C49.2127 0.498679 49.3201 0.533859 49.4187 0.602102C49.5173 0.670344 49.6048 0.769996 49.6749 0.894089C49.744 1.01827 49.7936 1.16397 49.8201 1.32053C49.8467 1.47709 49.8495 1.64054 49.8283 1.79892L48.1243 14.594H54.1437C57.5026 14.0693 60.876 15.3624 63.6521 18.2388C64.619 19.8162 65.2867 21.7512 65.5862 23.8437C65.8858 25.9363 65.8064 28.1105 65.3562 30.1418L62.1057 54.808C62.0722 55.0582 61.9817 55.2832 61.8496 55.4447C61.7176 55.6062 61.5521 55.6942 61.3815 55.6937H53.526Z" fill="white"/>
<path d="M77.6762 45.1495C79.9903 45.4113 82.3003 44.5703 84.275 42.7472C85.858 40.6489 86.8732 37.757 87.1293 34.6165C87.4143 33.4019 87.5143 32.1074 87.4222 30.8275C87.3301 29.5476 87.0481 28.3146 86.5968 27.2186C85.0411 25.5204 83.1093 24.7792 81.1993 25.1477H76.4493L73.8124 45.1495H77.6762ZM62.1313 69.7902C62.0226 69.791 61.9152 69.756 61.8165 69.6877C61.7179 69.6194 61.6305 69.5196 61.5605 69.3951C61.4907 69.2715 61.4403 69.126 61.413 68.9695C61.3858 68.8129 61.3823 68.6492 61.4029 68.4903L68.3893 15.4813C68.4229 15.2311 68.5134 15.006 68.6454 14.8445C68.7775 14.683 68.943 14.595 69.1135 14.5955H84.1643C86.0765 14.3534 88.0011 14.7313 89.8068 15.7034C91.6124 16.6755 93.2566 18.219 94.6269 20.2284C95.7719 22.4009 96.5542 24.9503 96.909 27.6652C97.2639 30.3801 97.1811 33.1824 96.6675 35.8399C96.3339 38.4436 95.7226 40.95 94.857 43.2634C93.9729 45.5676 92.8483 47.6456 91.5256 49.4188C89.9579 51.6168 88.0861 53.2723 86.043 54.2679C83.5952 55.3114 81.0556 55.7926 78.5112 55.6952H72.4236L70.6855 68.9045C70.652 69.1547 70.5615 69.3797 70.4294 69.5412C70.2973 69.7028 70.1319 69.7907 69.9613 69.7902H62.1313Z" fill="white"/>
</svg>
