<svg width="38" height="65" viewBox="0 0 38 65" fill="none" xmlns="http://www.w3.org/2000/svg">
<path d="M1 64H0.518358C0.518358 64.266 0.733997 64.4816 1 64.4816V64ZM37 64.4816C37.266 64.4816 37.4816 64.266 37.4816 64C37.4816 63.734 37.266 63.5184 37 63.5184V64.4816ZM0.518358 0V2.28571H1.48164V0H0.518358ZM0.518358 6.85714V11.4286H1.48164V6.85714H0.518358ZM0.518358 16V20.5714H1.48164V16H0.518358ZM0.518358 25.1429V29.7143H1.48164V25.1429H0.518358ZM0.518358 34.2857V38.8571H1.48164V34.2857H0.518358ZM0.518358 43.4286V48H1.48164V43.4286H0.518358ZM0.518358 52.5714V57.1429H1.48164V52.5714H0.518358ZM0.518358 61.7143V64H1.48164V61.7143H0.518358ZM1 64.4816H3.25V63.5184H1V64.4816ZM7.75 64.4816H12.25V63.5184H7.75V64.4816ZM16.75 64.4816H21.25V63.5184H16.75V64.4816ZM25.75 64.4816H30.25V63.5184H25.75V64.4816ZM34.75 64.4816H37V63.5184H34.75V64.4816Z" fill="white"/>
</svg>
