<svg width="85" height="20" viewBox="0 0 85 20" fill="none" xmlns="http://www.w3.org/2000/svg">
<path d="M20.8311 1V0.518358C20.7092 0.518358 20.5918 0.564622 20.5026 0.647813L20.8311 1ZM84.5 1.48164C84.766 1.48164 84.9816 1.266 84.9816 1C84.9816 0.733997 84.766 0.518358 84.5 0.518358V1.48164ZM1.32855 19.8522L2.98114 18.3105L2.32405 17.6061L0.671453 19.1478L1.32855 19.8522ZM6.28633 15.2272L9.59152 12.1439L8.93442 11.4395L5.62923 14.5228L6.28633 15.2272ZM12.8967 9.06052L16.2019 5.97719L15.5448 5.27281L12.2396 8.35615L12.8967 9.06052ZM19.5071 2.89385L21.1597 1.35219L20.5026 0.647813L18.85 2.18948L19.5071 2.89385ZM20.8311 1.48164H23.105V0.518358H20.8311V1.48164ZM27.6528 1.48164H32.2006V0.518358H27.6528V1.48164ZM36.7483 1.48164H41.2961V0.518358H36.7483V1.48164ZM45.8439 1.48164H50.3917V0.518358H45.8439V1.48164ZM54.9395 1.48164H59.4872V0.518358H54.9395V1.48164ZM64.035 1.48164H68.5828V0.518358H64.035V1.48164ZM73.1306 1.48164H77.6783V0.518358H73.1306V1.48164ZM82.2261 1.48164H84.5V0.518358H82.2261V1.48164Z" fill="white"/>
</svg>
