<svg width="111" height="33" viewBox="0 0 111 33" fill="none" xmlns="http://www.w3.org/2000/svg">
<path d="M89 32.5V32.9816C89.161 32.9816 89.3114 32.9012 89.4007 32.7672L89 32.5ZM110.401 1.26717C110.548 1.04584 110.488 0.746802 110.267 0.59925C110.046 0.451698 109.747 0.511505 109.599 0.732833L110.401 1.26717ZM0 32.9816H2.225V32.0184H0V32.9816ZM6.675 32.9816H11.125V32.0184H6.675V32.9816ZM15.575 32.9816H20.025V32.0184H15.575V32.9816ZM24.475 32.9816H28.925V32.0184H24.475V32.9816ZM33.375 32.9816H37.825V32.0184H33.375V32.9816ZM42.275 32.9816H46.725V32.0184H42.275V32.9816ZM51.175 32.9816H55.625V32.0184H51.175V32.9816ZM60.075 32.9816H64.525V32.0184H60.075V32.9816ZM68.975 32.9816H73.425V32.0184H68.975V32.9816ZM77.875 32.9816H82.325V32.0184H77.875V32.9816ZM86.775 32.9816H89V32.0184H86.775V32.9816ZM89.4007 32.7672L90.7132 30.7984L89.9118 30.2641L88.5993 32.2328L89.4007 32.7672ZM93.3382 26.8609L95.9632 22.9234L95.1618 22.3891L92.5368 26.3266L93.3382 26.8609ZM98.5882 18.9859L101.213 15.0484L100.412 14.5141L97.7868 18.4516L98.5882 18.9859ZM103.838 11.1109L106.463 7.17341L105.662 6.63908L103.037 10.5766L103.838 11.1109ZM109.088 3.23592L110.401 1.26717L109.599 0.732833L108.287 2.70158L109.088 3.23592Z" fill="white"/>
</svg>
