<svg width="225" height="112" viewBox="0 0 225 112" fill="none" xmlns="http://www.w3.org/2000/svg">
<path fill-rule="evenodd" clip-rule="evenodd" d="M-156.139 6.04914C-156.139 9.03294 -158.589 11.4518 -161.611 11.4518C-164.634 11.4518 -167.083 9.03294 -167.083 6.04914C-167.083 3.06534 -164.634 0.646484 -161.611 0.646484C-158.589 0.646484 -156.139 3.06534 -156.139 6.04914ZM-156.139 39.4475C-156.139 42.4313 -158.589 44.8501 -161.611 44.8501C-164.634 44.8501 -167.083 42.4313 -167.083 39.4475C-167.083 36.4637 -164.634 34.0448 -161.611 34.0448C-158.589 34.0448 -156.139 36.4637 -156.139 39.4475ZM-161.611 111.647C-158.589 111.647 -156.139 109.228 -156.139 106.244C-156.139 103.26 -158.589 100.841 -161.611 100.841C-164.634 100.841 -167.083 103.26 -167.083 106.244C-167.083 109.228 -164.634 111.647 -161.611 111.647ZM-156.139 72.8458C-156.139 75.8296 -158.589 78.2485 -161.611 78.2485C-164.634 78.2485 -167.083 75.8296 -167.083 72.8458C-167.083 69.862 -164.634 67.4432 -161.611 67.4432C-158.589 67.4432 -156.139 69.862 -156.139 72.8458ZM-113.855 11.4518C-110.833 11.4518 -108.383 9.03294 -108.383 6.04914C-108.383 3.06534 -110.833 0.646484 -113.855 0.646484C-116.877 0.646484 -119.327 3.06534 -119.327 6.04914C-119.327 9.03294 -116.877 11.4518 -113.855 11.4518ZM-108.383 39.4475C-108.383 42.4313 -110.833 44.8501 -113.855 44.8501C-116.877 44.8501 -119.327 42.4313 -119.327 39.4475C-119.327 36.4637 -116.877 34.0448 -113.855 34.0448C-110.833 34.0448 -108.383 36.4637 -108.383 39.4475ZM-113.855 111.647C-110.833 111.647 -108.383 109.228 -108.383 106.244C-108.383 103.26 -110.833 100.841 -113.855 100.841C-116.877 100.841 -119.327 103.26 -119.327 106.244C-119.327 109.228 -116.877 111.647 -113.855 111.647ZM-108.383 72.8458C-108.383 75.8296 -110.833 78.2485 -113.855 78.2485C-116.877 78.2485 -119.327 75.8296 -119.327 72.8458C-119.327 69.862 -116.877 67.4432 -113.855 67.4432C-110.833 67.4432 -108.383 69.862 -108.383 72.8458ZM-66.0987 11.4518C-63.0766 11.4518 -60.6266 9.03294 -60.6266 6.04914C-60.6266 3.06534 -63.0766 0.646484 -66.0987 0.646484C-69.1209 0.646484 -71.5708 3.06534 -71.5708 6.04914C-71.5708 9.03294 -69.1209 11.4518 -66.0987 11.4518ZM-60.6266 39.4475C-60.6266 42.4313 -63.0766 44.8501 -66.0987 44.8501C-69.1209 44.8501 -71.5708 42.4313 -71.5708 39.4475C-71.5708 36.4637 -69.1209 34.0448 -66.0987 34.0448C-63.0766 34.0448 -60.6266 36.4637 -60.6266 39.4475ZM-66.0987 111.647C-63.0766 111.647 -60.6266 109.228 -60.6266 106.244C-60.6266 103.26 -63.0766 100.841 -66.0987 100.841C-69.1209 100.841 -71.5708 103.26 -71.5708 106.244C-71.5708 109.228 -69.1209 111.647 -66.0987 111.647ZM-60.6266 72.8458C-60.6266 75.8296 -63.0766 78.2485 -66.0987 78.2485C-69.1209 78.2485 -71.5708 75.8296 -71.5708 72.8458C-71.5708 69.862 -69.1209 67.4432 -66.0987 67.4432C-63.0766 67.4432 -60.6266 69.862 -60.6266 72.8458ZM-18.3424 11.4518C-15.3202 11.4518 -12.8703 9.03294 -12.8703 6.04914C-12.8703 3.06534 -15.3202 0.646484 -18.3424 0.646484C-21.3645 0.646484 -23.8145 3.06534 -23.8145 6.04914C-23.8145 9.03294 -21.3645 11.4518 -18.3424 11.4518ZM-12.8703 39.4475C-12.8703 42.4313 -15.3202 44.8501 -18.3424 44.8501C-21.3645 44.8501 -23.8145 42.4313 -23.8145 39.4475C-23.8145 36.4637 -21.3645 34.0448 -18.3424 34.0448C-15.3202 34.0448 -12.8703 36.4637 -12.8703 39.4475ZM-18.3424 111.647C-15.3202 111.647 -12.8703 109.228 -12.8703 106.244C-12.8703 103.26 -15.3202 100.841 -18.3424 100.841C-21.3645 100.841 -23.8145 103.26 -23.8145 106.244C-23.8145 109.228 -21.3645 111.647 -18.3424 111.647ZM-12.8703 72.8458C-12.8703 75.8296 -15.3202 78.2485 -18.3424 78.2485C-21.3645 78.2485 -23.8145 75.8296 -23.8145 72.8458C-23.8145 69.862 -21.3645 67.4432 -18.3424 67.4432C-15.3202 67.4432 -12.8703 69.862 -12.8703 72.8458ZM29.414 11.4518C32.4361 11.4518 34.8861 9.03294 34.8861 6.04914C34.8861 3.06534 32.4361 0.646484 29.414 0.646484C26.3918 0.646484 23.9419 3.06534 23.9419 6.04914C23.9419 9.03294 26.3918 11.4518 29.414 11.4518ZM34.8861 39.4475C34.8861 42.4313 32.4361 44.8501 29.414 44.8501C26.3918 44.8501 23.9419 42.4313 23.9419 39.4475C23.9419 36.4637 26.3918 34.0448 29.414 34.0448C32.4361 34.0448 34.8861 36.4637 34.8861 39.4475ZM29.414 111.647C32.4361 111.647 34.8861 109.228 34.8861 106.244C34.8861 103.26 32.4361 100.841 29.414 100.841C26.3918 100.841 23.9419 103.26 23.9419 106.244C23.9419 109.228 26.3918 111.647 29.414 111.647ZM34.8861 72.8458C34.8861 75.8296 32.4361 78.2485 29.414 78.2485C26.3918 78.2485 23.9419 75.8296 23.9419 72.8458C23.9419 69.862 26.3918 67.4432 29.414 67.4432C32.4361 67.4432 34.8861 69.862 34.8861 72.8458ZM76.6728 11.4298C76.5089 11.4443 76.343 11.4518 76.1753 11.4518C73.1532 11.4518 70.7032 9.03294 70.7032 6.04914C70.7032 3.06534 73.1532 0.646484 76.1753 0.646484C76.343 0.646484 76.5089 0.653933 76.6728 0.668514C76.8367 0.653933 77.0026 0.646484 77.1703 0.646484C80.1925 0.646484 82.6424 3.06534 82.6424 6.04914C82.6424 9.03294 80.1925 11.4518 77.1703 11.4518C77.0026 11.4518 76.8367 11.4443 76.6728 11.4298ZM76.6728 44.8281C76.5089 44.8427 76.3429 44.8501 76.1752 44.8501C73.1531 44.8501 70.7031 42.4313 70.7031 39.4475C70.7031 36.4637 73.1531 34.0448 76.1752 34.0448C76.3429 34.0448 76.5089 34.0523 76.6728 34.0669C76.8366 34.0523 77.0026 34.0448 77.1703 34.0448C80.1925 34.0448 82.6424 36.4637 82.6424 39.4475C82.6424 42.4313 80.1925 44.8501 77.1703 44.8501C77.0026 44.8501 76.8366 44.8427 76.6728 44.8281ZM76.6728 111.625C76.5089 111.639 76.3429 111.647 76.1752 111.647C73.1531 111.647 70.7031 109.228 70.7031 106.244C70.7031 103.26 73.1531 100.841 76.1752 100.841C76.3429 100.841 76.5089 100.849 76.6728 100.864C76.8366 100.849 77.0026 100.841 77.1703 100.841C80.1925 100.841 82.6424 103.26 82.6424 106.244C82.6424 109.228 80.1925 111.647 77.1703 111.647C77.0026 111.647 76.8366 111.639 76.6728 111.625ZM76.6728 78.2264C76.5089 78.241 76.3429 78.2485 76.1752 78.2485C73.1531 78.2485 70.7031 75.8296 70.7031 72.8458C70.7031 69.862 73.1531 67.4432 76.1752 67.4432C76.3429 67.4432 76.5089 67.4506 76.6728 67.4652C76.8366 67.4506 77.0026 67.4432 77.1703 67.4432C80.1925 67.4432 82.6424 69.862 82.6424 72.8458C82.6424 75.8296 80.1925 78.2485 77.1703 78.2485C77.0026 78.2485 76.8366 78.241 76.6728 78.2264ZM124.927 11.4518C127.949 11.4518 130.399 9.03294 130.399 6.04914C130.399 3.06534 127.949 0.646484 124.927 0.646484C121.905 0.646484 119.455 3.06534 119.455 6.04914C119.455 9.03294 121.905 11.4518 124.927 11.4518ZM130.399 39.4475C130.399 42.4313 127.949 44.8501 124.927 44.8501C121.905 44.8501 119.455 42.4313 119.455 39.4475C119.455 36.4637 121.905 34.0448 124.927 34.0448C127.949 34.0448 130.399 36.4637 130.399 39.4475ZM124.927 111.647C127.949 111.647 130.399 109.228 130.399 106.244C130.399 103.26 127.949 100.841 124.927 100.841C121.905 100.841 119.455 103.26 119.455 106.244C119.455 109.228 121.905 111.647 124.927 111.647ZM130.399 72.8458C130.399 75.8296 127.949 78.2485 124.927 78.2485C121.905 78.2485 119.455 75.8296 119.455 72.8458C119.455 69.862 121.905 67.4432 124.927 67.4432C127.949 67.4432 130.399 69.862 130.399 72.8458ZM172.683 11.4518C175.705 11.4518 178.155 9.03294 178.155 6.04914C178.155 3.06534 175.705 0.646484 172.683 0.646484C169.661 0.646484 167.211 3.06534 167.211 6.04914C167.211 9.03294 169.661 11.4518 172.683 11.4518ZM178.155 39.4475C178.155 42.4313 175.705 44.8501 172.683 44.8501C169.661 44.8501 167.211 42.4313 167.211 39.4475C167.211 36.4637 169.661 34.0448 172.683 34.0448C175.705 34.0448 178.155 36.4637 178.155 39.4475ZM172.683 111.647C175.705 111.647 178.155 109.228 178.155 106.244C178.155 103.26 175.705 100.841 172.683 100.841C169.661 100.841 167.211 103.26 167.211 106.244C167.211 109.228 169.661 111.647 172.683 111.647ZM178.155 72.8458C178.155 75.8296 175.705 78.2485 172.683 78.2485C169.661 78.2485 167.211 75.8296 167.211 72.8458C167.211 69.862 169.661 67.4432 172.683 67.4432C175.705 67.4432 178.155 69.862 178.155 72.8458ZM219.444 11.4518C222.466 11.4518 224.916 9.03294 224.916 6.04914C224.916 3.06534 222.466 0.646484 219.444 0.646484C216.422 0.646484 213.972 3.06534 213.972 6.04914C213.972 9.03294 216.422 11.4518 219.444 11.4518ZM224.916 39.4475C224.916 42.4313 222.466 44.8501 219.444 44.8501C216.422 44.8501 213.972 42.4313 213.972 39.4475C213.972 36.4637 216.422 34.0448 219.444 34.0448C222.466 34.0448 224.916 36.4637 224.916 39.4475ZM219.444 111.647C222.466 111.647 224.916 109.228 224.916 106.244C224.916 103.26 222.466 100.841 219.444 100.841C216.422 100.841 213.972 103.26 213.972 106.244C213.972 109.228 216.422 111.647 219.444 111.647ZM224.916 72.8458C224.916 75.8296 222.466 78.2485 219.444 78.2485C216.422 78.2485 213.972 75.8296 213.972 72.8458C213.972 69.862 216.422 67.4432 219.444 67.4432C222.466 67.4432 224.916 69.862 224.916 72.8458Z" fill="#FF1CF7"/>
</svg>
