<svg width="88" height="60" viewBox="0 0 88 60" fill="none" xmlns="http://www.w3.org/2000/svg">
<path d="M60 0.5L60.4373 0.298167C60.3586 0.127592 60.1879 0.0183583 60 0.0183583V0.5ZM86.5627 59.2028C86.6742 59.4443 86.9603 59.5497 87.2018 59.4382C87.4434 59.3268 87.5488 59.0406 87.4373 58.7991L86.5627 59.2028ZM0 0.981642H2.14286V0.0183583H0V0.981642ZM6.42857 0.981642H10.7143V0.0183583H6.42857V0.981642ZM15 0.981642H19.2857V0.0183583H15V0.981642ZM23.5714 0.981642H27.8571V0.0183583H23.5714V0.981642ZM32.1429 0.981642H36.4286V0.0183583H32.1429V0.981642ZM40.7143 0.981642H45V0.0183583H40.7143V0.981642ZM49.2857 0.981642H53.5714V0.0183583H49.2857V0.981642ZM57.8571 0.981642H60V0.0183583H57.8571V0.981642ZM59.5627 0.701833L60.527 2.79115L61.4016 2.38749L60.4373 0.298167L59.5627 0.701833ZM62.4555 6.96979L64.3841 11.1484L65.2587 10.7448L63.3302 6.56612L62.4555 6.96979ZM66.3127 15.3271L68.2413 19.5057L69.1159 19.102L67.1873 14.9234L66.3127 15.3271ZM70.1698 23.6843L72.0984 27.863L72.973 27.4593L71.0445 23.2807L70.1698 23.6843ZM74.027 32.0416L75.9556 36.2203L76.8302 35.8166L74.9016 31.638L74.027 32.0416ZM77.8841 40.3989L79.8127 44.5775L80.6873 44.1739L78.7588 39.9952L77.8841 40.3989ZM81.7413 48.7562L83.6698 52.9348L84.5445 52.5312L82.6159 48.3525L81.7413 48.7562ZM85.5984 57.1135L86.5627 59.2028L87.4373 58.7991L86.473 56.7098L85.5984 57.1135Z" fill="white"/>
</svg>
