<svg width="102" height="102" viewBox="0 0 102 102" fill="none" xmlns="http://www.w3.org/2000/svg">
<g clip-path="url(#clip0_107_1751)">
<path d="M102 0V102H-0.000488281V0H102Z" fill="white"/>
<path d="M69.0796 42.738C69.0796 42.738 63.9031 58.956 63.5206 60.333C63.3676 58.9815 59.5936 29.835 59.5936 29.835C50.7706 29.835 46.0786 36.108 43.5796 42.738C43.5796 42.738 37.2811 59.007 36.7711 60.3585C36.7456 59.0835 35.8021 42.891 35.8021 42.891C35.2666 34.7565 27.8461 29.835 21.8281 29.835L29.0701 73.9755C38.3011 73.95 43.2736 67.7025 45.8746 61.047C45.8746 61.047 51.4081 46.6905 51.6376 46.053C51.6886 46.665 55.6156 73.9755 55.6156 73.9755C64.8721 73.9755 69.8701 68.136 72.5476 61.7355L85.5271 29.835C76.3726 29.835 71.5531 36.0825 69.0796 42.738Z" fill="black"/>
</g>
<defs>
<clipPath id="clip0_107_1751">
<rect width="102" height="102" rx="30.7167" fill="white"/>
</clipPath>
</defs>
</svg>
